<svg width="34" height="34" viewBox="0 0 34 34" fill="none" xmlns="http://www.w3.org/2000/svg">
<path d="M12.4674 17.5304C12.3331 17.396 12.2482 17.2122 12.2482 17C12.2482 16.5899 12.5877 16.2505 12.9978 16.2505H21.0022C21.4123 16.2505 21.7518 16.5899 21.7518 17C21.7518 17.4101 21.4123 17.7496 21.0022 17.7496H12.9978C12.7927 17.7566 12.6018 17.6647 12.4674 17.5304Z" fill="#292D32"/>
<path d="M16.4697 21.5326C16.3353 21.3982 16.2505 21.2144 16.2505 21.0022L16.2505 12.9978C16.2505 12.5877 16.5899 12.2483 17 12.2483C17.4101 12.2483 17.7495 12.5877 17.7495 12.9978L17.7495 21.0022C17.7495 21.4124 17.4101 21.7518 17 21.7518C16.7879 21.7518 16.604 21.6669 16.4697 21.5326Z" fill="#292D32"/>
<path d="M11.5199 26.7227L7.27728 22.4801C3.43769 18.6405 3.43769 15.3595 7.27728 11.5199L11.5199 7.27729C15.3595 3.4377 18.6405 3.4377 22.4801 7.27729L26.7227 11.5199C30.5623 15.3595 30.5623 18.6405 26.7227 22.4801L22.4801 26.7227C18.6405 30.5623 15.3595 30.5623 11.5199 26.7227ZM21.4194 8.33795C18.1597 5.07819 15.8403 5.07819 12.5806 8.33795L8.33794 12.5806C5.07818 15.8404 5.07818 18.1597 8.33794 21.4194L12.5806 25.6621C15.8403 28.9218 18.1597 28.9218 21.4194 25.6621L25.6621 21.4194C28.9218 18.1597 28.9218 15.8404 25.6621 12.5806L21.4194 8.33795Z" fill="#292D32"/>
</svg>
